REM MD5 d3161ebccf27b5a28d74079e282557ca
FILE "UEFA Champions League - Season 1999-2000 (France).bin" BINARY
  TRACK 01 MODE2/2352
    INDEX 01 00:00:00
  TRACK 02 AUDIO
    INDEX 00 46:44:22
    INDEX 01 46:46:22
  TRACK 03 AUDIO
    INDEX 00 52:59:57
    INDEX 01 53:01:57
REM LEADOUT 59:15:17
